<svg width="40" height="40" viewBox="0 0 40 40" fill="none" xmlns="http://www.w3.org/2000/svg">
<path d="M37.9661 15.3331H35.7657L35.0448 12.8522C34.8623 12.2264 34.4535 11.6878 33.8955 11.3376C33.3374 10.9874 32.6684 10.8498 32.0144 10.9507L22.1455 12.4831C21.8288 12.5321 21.5275 12.6504 21.2636 12.8294C20.9998 13.0083 20.7802 13.2433 20.6211 13.5169C20.462 13.7905 20.3675 14.0958 20.3446 14.4101C20.3216 14.7245 20.3708 15.0399 20.4885 15.3331H18.9831C18.8492 15.3331 18.7184 15.372 18.607 15.4451L16.7439 16.6664H15.5933V17.9997H16.7439L18.607 19.221C18.7184 19.2941 18.8492 19.333 18.9831 19.333H22.0921L23.7402 20.9537C23.7924 21.6269 24.0361 22.2722 24.4433 22.8158C24.8506 23.3594 25.405 23.7794 26.0434 24.0281L27.1187 24.4511V29.8427L25.8344 32.3685C25.7877 32.4611 25.7636 32.5632 25.764 32.6666H25.7628V39.9999H27.1187V33.3329H35.9322V39.9995H37.2882V32.6662H37.2869C37.2874 32.5628 37.2633 32.4607 37.2166 32.3681L35.9322 29.8423V19.333H37.9661C38.5056 19.333 39.0229 19.1223 39.4043 18.7473C39.7858 18.3722 40 17.8635 40 17.3331C40 16.8026 39.7858 16.2939 39.4043 15.9189C39.0229 15.5438 38.5056 15.3331 37.9661 15.3331ZM21.695 14.5618C21.6942 14.3779 21.7606 14.1998 21.8821 14.06C22.0036 13.9202 22.1721 13.8279 22.357 13.8L32.2258 12.2677C32.5528 12.2171 32.8874 12.2859 33.1665 12.461C33.4455 12.6361 33.6499 12.9055 33.7411 13.2184L34.3555 15.3331H30.7894L31.6659 14.4712L30.7071 13.5283L28.8718 15.3331H22.4793C22.2713 15.3329 22.072 15.2515 21.9249 15.1069C21.7779 14.9623 21.6952 14.7663 21.695 14.5618ZM18.1714 17.3331L19.1883 16.6664H21.1588C20.9916 17.0927 20.9717 17.5612 21.102 17.9997H19.1883L18.1714 17.3331ZM27.5377 31.9996L28.2156 30.6662H34.8353L35.5133 31.9996H27.5377ZM34.5763 29.3329H28.4746V23.9996C28.4746 23.8664 28.434 23.7362 28.3581 23.6259C28.2821 23.5156 28.1742 23.4301 28.0484 23.3807L26.5471 22.7902C26.1145 22.6216 25.7437 22.3289 25.4828 21.95C25.222 21.5712 25.0833 21.1238 25.0848 20.6663C25.0848 20.5788 25.0673 20.4921 25.0332 20.4112C24.9991 20.3303 24.9492 20.2568 24.8862 20.1949L22.5956 17.9425C22.4893 17.838 22.4169 17.7048 22.3875 17.5598C22.3582 17.4148 22.3732 17.2644 22.4307 17.1278C22.4883 16.9912 22.5857 16.8745 22.7108 16.7923C22.8358 16.7102 22.9828 16.6664 23.1332 16.6664H23.3894C23.5073 16.6665 23.6237 16.6936 23.7293 16.7453L28.751 19.2143L30.7071 21.1378L31.6659 20.1949L30.7894 19.333H34.5763V29.3329ZM29.3127 17.9997L26.6008 16.6664H35.9322V17.9997H29.3127ZM37.9661 17.9997H37.2882V16.6664H37.9661C38.146 16.6664 38.3184 16.7366 38.4455 16.8617C38.5727 16.9867 38.6441 17.1562 38.6441 17.3331C38.6441 17.5099 38.5727 17.6794 38.4455 17.8045C38.3184 17.9295 38.146 17.9997 37.9661 17.9997Z" fill="#F5961B"/>
<path d="M0 3.33316V37.3328C0 37.5096 0.0714283 37.6792 0.198572 37.8042C0.325715 37.9292 0.498158 37.9995 0.677966 37.9995H24.4068V36.6661H1.35593V3.99982H31.8644V9.3331H33.2203V3.33316C33.2203 3.15635 33.1489 2.98679 33.0218 2.86176C32.8946 2.73674 32.7222 2.6665 32.5424 2.6665H0.677966C0.498158 2.6665 0.325715 2.73674 0.198572 2.86176C0.0714283 2.98679 0 3.15635 0 3.33316Z" fill="#F5961B"/>
<path d="M13.522 12.7317C15.5016 12.374 17.5447 12.6026 19.3921 13.3883L19.93 12.1645C17.8018 11.2602 15.4456 11.0081 13.1693 11.4413C10.8931 11.8745 8.8027 12.9728 7.17125 14.5926C5.5398 16.2125 4.44319 18.2786 4.02472 20.5209C3.60625 22.7633 3.88537 25.0776 4.82562 27.1615C5.76587 29.2455 7.32351 31.002 9.29501 32.2017C11.2665 33.4014 13.5602 33.9884 15.8763 33.886C18.1925 33.7837 20.4233 32.9967 22.2774 31.6279C24.1315 30.2592 25.5227 28.3723 26.269 26.2139L24.9847 25.786C24.4469 27.34 23.5286 28.7399 22.3106 29.8623C21.0926 30.9847 19.6123 31.7951 18.0005 32.222L23.0114 27.2947L22.0526 26.3519L15.7432 32.5563C15.1336 32.5792 14.5232 32.5485 13.9191 32.4646L18.3824 28.0758L17.4237 27.1333L12.3513 32.1211C11.8788 31.9784 11.4175 31.8019 10.9713 31.5928L15.4478 27.1902L14.489 26.2475L9.74578 30.9121C9.36509 30.6643 9.00186 30.3915 8.65858 30.0955L12.5135 26.3049L11.5547 25.362L7.69951 29.1529C7.39829 28.8156 7.12041 28.4587 6.86773 28.0848L11.274 23.7528L10.3154 22.81L6.17316 26.8819C5.95988 26.4438 5.77979 25.9908 5.63434 25.5265L10.0339 21.2L9.0751 20.2572L5.2851 23.9843C5.21787 23.5154 5.18412 23.0425 5.18409 22.569C5.18409 22.4425 5.18722 22.3165 5.19197 22.1907L9.47265 17.9814L8.51383 17.0386L5.52866 19.974C6.02958 18.1478 7.04616 16.4984 8.46075 15.2167C9.87534 13.9351 11.6301 13.0735 13.522 12.7317Z" fill="#F5961B"/>
<path d="M21.3548 9.83313C22.3671 9.83313 22.8183 8.94589 23.1478 8.29798C23.319 7.96115 23.5536 7.49982 23.7278 7.49982C23.9021 7.49982 24.1367 7.96115 24.3081 8.29798C24.6376 8.94589 25.0889 9.83313 26.1012 9.83313C27.1134 9.83313 27.5648 8.94589 27.8942 8.29798C28.0656 7.96115 28.3001 7.49982 28.4745 7.49982V6.1665C27.4623 6.1665 27.0109 7.05374 26.6815 7.70165C26.5101 8.03848 26.2756 8.49981 26.1012 8.49981C25.9267 8.49981 25.6922 8.03848 25.5208 7.70157C25.1914 7.05374 24.7401 6.1665 23.7278 6.1665C22.7156 6.1665 22.2645 7.05374 21.935 7.70165C21.7637 8.03848 21.5291 8.49981 21.3548 8.49981C21.1805 8.49981 20.9461 8.03848 20.7748 7.70165C20.4453 7.05383 19.9941 6.1665 18.9818 6.1665C17.9695 6.1665 17.5184 7.05374 17.189 7.70165C17.0178 8.03848 16.7832 8.49981 16.6089 8.49981C16.4347 8.49981 16.2002 8.03848 16.0289 7.70165C15.6995 7.05383 15.2483 6.1665 14.236 6.1665C13.2237 6.1665 12.7728 7.05374 12.4434 7.70165C12.2721 8.03848 12.0375 8.49981 11.8634 8.49981C11.6892 8.49981 11.4547 8.03848 11.2835 7.70174C10.9541 7.05383 10.503 6.1665 9.49081 6.1665C8.47861 6.1665 8.02768 7.05383 7.69835 7.70174C7.52708 8.03848 7.29259 8.49981 7.11861 8.49981C6.94463 8.49981 6.70996 8.03848 6.53861 7.70174C6.2092 7.05383 5.75793 6.1665 4.74573 6.1665V7.49982C4.91996 7.49982 5.15446 7.96115 5.32581 8.29798C5.65513 8.94589 6.10641 9.83313 7.11861 9.83313C8.13081 9.83313 8.58191 8.94581 8.91124 8.2979C9.08242 7.96107 9.31691 7.49982 9.4909 7.49982C9.66488 7.49982 9.89954 7.96115 10.0708 8.2979C10.4002 8.94581 10.8513 9.83313 11.8634 9.83313C12.8756 9.83313 13.3268 8.94581 13.6562 8.2979C13.8274 7.96107 14.062 7.49982 14.2361 7.49982C14.4101 7.49982 14.645 7.96115 14.8162 8.29798C15.1457 8.94589 15.5968 9.83313 16.609 9.83313C17.6212 9.83313 18.0725 8.94589 18.4019 8.29798C18.5732 7.96115 18.8078 7.49982 18.9819 7.49982C19.1561 7.49982 19.3908 7.96115 19.5621 8.29798C19.8915 8.94589 20.3426 9.83313 21.3548 9.83313Z" fill="#F5961B"/>
<path d="M24.4068 0H5.42371V1.33332H24.4068V0Z" fill="#F5961B"/>
<path d="M27.1186 0H25.7627V1.33332H27.1186V0Z" fill="#F5961B"/>
</svg>
